<svg width="190" height="190" viewBox="0 0 190 190" fill="none" xmlns="http://www.w3.org/2000/svg">
<g filter="url(#filter0_d)">
<path fill-rule="evenodd" clip-rule="evenodd" d="M95 155C133.66 155 165 123.66 165 85C165 46.3401 133.66 15 95 15C56.3401 15 25 46.3401 25 85C25 123.66 56.3401 155 95 155Z" fill="white"/>
</g>
<path fill-rule="evenodd" clip-rule="evenodd" d="M75.0467 90.6648C75.1037 90.8133 75.1607 90.9619 75.2177 91.0952C75.5977 92.1905 75.6927 93.1905 75.3602 94.2381C75.0277 96.4286 73.6027 98.3333 71.5127 99.1429C70.8002 99.4762 69.9452 99.619 69.1377 99.619C68.9002 99.619 68.6152 99.619 68.3777 99.5714C67.4277 99.4762 66.4302 99.1429 65.4327 98.5714C64.2452 97.8571 63.0577 96.9048 61.7752 95.4762C60.4927 96.9048 59.3527 97.9048 58.1177 98.5714C57.1677 99.1429 56.1702 99.4762 55.1727 99.5714C55.054 99.5714 54.9234 99.5833 54.7927 99.5952C54.6621 99.6071 54.5315 99.619 54.4127 99.619C53.6052 99.619 52.7977 99.4762 52.0377 99.1429C49.9952 98.3333 48.5227 96.4762 48.1902 94.2381C48.0002 93.1905 48.1427 92.1429 48.5227 91.0476C48.6652 90.6667 48.8077 90.3334 48.9502 90L48.9502 90L48.9502 90L48.9503 89.9999L48.9503 89.9999C49.1878 89.4761 49.4252 88.9524 49.6152 88.4762L49.6627 88.4286C51.7052 83.9524 53.9377 79.4286 56.2177 75L56.3127 74.8095C56.5502 74.381 56.7877 73.9048 57.0252 73.4286L57.0252 73.4286L57.0252 73.4286L57.0252 73.4286C57.3102 72.8571 57.6427 72.3333 58.1177 71.7619C59.1152 70.6667 60.4452 70 61.9177 70C63.3427 70 64.7202 70.6667 65.6702 71.8571C66.0947 72.3253 66.3675 72.8314 66.6241 73.3076L66.6242 73.3078C66.6547 73.3644 66.685 73.4206 66.7152 73.4762C66.9527 73.9524 67.1902 74.4286 67.4277 74.8571L67.5227 75.0476C69.8502 79.5238 72.0352 84.0476 74.0777 88.4762L74.1252 88.5238C74.3152 89 74.5527 89.5238 74.7902 90.0476C74.8757 90.219 74.9612 90.4419 75.0467 90.6647L75.0467 90.6648ZM98.0654 77.4285C98.0654 78.4761 97.2104 79.3808 96.1179 79.3808C95.0254 79.3808 94.1704 78.5237 94.1704 77.4285C94.1704 76.3332 94.9779 75.4761 96.1179 75.4761C97.2579 75.5713 98.0654 76.4285 98.0654 77.4285ZM90.1327 81.3334V81.8096C90.1327 81.8096 89.2302 80.6191 87.2827 80.6191C84.0527 80.6191 81.5352 83.0953 81.5352 86.4763C81.5352 89.8572 84.0052 92.3334 87.2827 92.3334C89.2777 92.3334 90.1327 91.0953 90.1327 91.0953V91.6191C90.1327 91.8572 90.3227 92.0477 90.5602 92.0477H92.9352V80.9049H90.5602C90.3227 80.9049 90.1327 81.143 90.1327 81.3334ZM87.7576 89.7142C88.8026 89.7142 89.7051 89.1428 90.1326 88.4761V84.5713C89.7526 83.9047 88.8026 83.3333 87.7576 83.3333C85.9051 83.3333 84.4326 84.5237 84.4326 86.5237C84.4326 88.5237 85.8576 89.7142 87.7576 89.7142ZM94.7402 80.9048H97.5902V92.0476H94.7402V80.9048ZM134.308 81.8096C134.308 81.8096 135.21 80.6192 137.158 80.6192C140.388 80.6192 142.905 83.0953 142.858 86.5239C142.858 89.9049 140.34 92.3811 137.11 92.3811C135.163 92.3811 134.26 91.143 134.26 91.143V91.6668C134.26 91.9049 134.07 92.0953 133.833 92.0953H131.458V75.5715H134.308V81.8096ZM136.683 89.6666C135.59 89.6666 134.735 89.0952 134.308 88.4285V84.4285C134.735 83.8571 135.685 83.1904 136.683 83.1904C138.583 83.1904 140.008 84.3809 140.008 86.3809C140.008 88.3809 138.583 89.6666 136.683 89.6666ZM129.985 92.143V85.4763C129.985 83.5715 129.605 82.5239 128.56 81.6668C127.753 80.9525 126.708 80.6191 125.473 80.6191C124.38 80.6191 123.24 80.9525 122.433 81.8096V81.3334C122.433 81.0953 122.243 80.9049 122.005 80.9049H119.773V92.0953H122.623V84.3334C123.193 83.6668 124.095 83.2382 124.95 83.2382C126.565 83.2382 127.135 83.9525 127.135 85.8096V92.143H129.985ZM112.885 80.6192C110.938 80.6192 110.035 81.8096 110.035 81.8096V75.5715H107.185V92.0953H109.56C109.798 92.0953 109.988 91.9049 109.988 91.6668V91.143C109.988 91.143 110.89 92.3811 112.838 92.3811C116.068 92.3811 118.585 89.9049 118.585 86.5239C118.633 83.0953 116.115 80.6192 112.885 80.6192ZM110.035 88.4285C110.463 89.0952 111.318 89.6666 112.41 89.6666C114.31 89.6666 115.735 88.3809 115.735 86.3809C115.735 84.3809 114.31 83.1904 112.41 83.1904C111.413 83.1904 110.463 83.8571 110.035 84.4285V88.4285ZM104.715 80.6191C105.57 80.6191 105.998 80.762 105.998 80.762V83.381C105.998 83.381 103.623 82.5715 102.15 84.2858V92.0953H99.3003V80.9049H101.675C101.913 80.9049 102.103 81.0953 102.103 81.3334V81.8096C102.673 81.1906 103.86 80.6191 104.715 80.6191ZM61.8703 92.6191C60.2553 90.6191 59.2578 88.7143 58.8778 87.0953C58.7353 86.4286 58.6878 85.8096 58.7828 85.2858C58.8303 84.8096 59.0203 84.381 59.2578 84.0477C59.8278 83.2382 60.7778 82.762 61.8703 82.762C62.9628 82.762 63.9603 83.2382 64.4828 84.0477C64.7203 84.381 64.9103 84.8096 64.9578 85.2858C65.0528 85.8096 65.0053 86.4286 64.8628 87.0953C64.4828 88.6667 63.4378 90.5715 61.8703 92.6191ZM70.9429 97.4762C72.4154 96.8572 73.4604 95.5238 73.6504 94C73.7929 93.2381 73.6979 92.4762 73.3654 91.6667C73.2704 91.381 73.1279 91.0477 72.9854 90.7144L72.9854 90.7143C72.8666 90.4762 72.7597 90.2262 72.6529 89.9762C72.546 89.7262 72.4391 89.4762 72.3204 89.2381V89.1905C70.2779 84.8095 68.0929 80.2857 65.8604 75.8572L65.7654 75.6667C65.5279 75.1905 65.2904 74.7143 65.0529 74.2857C64.8154 73.8095 64.5779 73.381 64.2454 73C63.6279 72.2857 62.7729 71.9048 61.8704 71.9048C60.9679 71.9048 60.1129 72.2857 59.4954 73C59.2104 73.381 58.9254 73.8095 58.6879 74.2857C58.4504 74.7619 58.2129 75.2381 57.9754 75.6667L57.8804 75.8572C55.6004 80.2381 53.4154 84.7619 51.3729 89.1905L51.3254 89.2381C51.0879 89.7143 50.8504 90.2381 50.6604 90.7143C50.595 90.889 50.5297 91.0437 50.4689 91.1875C50.3972 91.3573 50.3318 91.512 50.2804 91.6667C49.9479 92.5238 49.9004 93.2381 49.9954 94C50.2329 95.5238 51.2304 96.9048 52.7029 97.4762C53.3679 97.7143 54.1279 97.8572 54.9354 97.7619C55.6479 97.6667 56.4079 97.4286 57.1679 97C58.2129 96.4286 59.3054 95.5238 60.5404 94.1429C58.6404 91.7619 57.4054 89.5238 56.9779 87.5715C56.7404 86.6667 56.7404 85.8095 56.8354 85.0476C56.9779 84.3334 57.2154 83.6191 57.6429 83.0476C58.5454 81.7619 60.1129 80.9524 61.8229 80.9524C63.5329 80.9524 65.1004 81.7143 66.0029 83.0476C66.4304 83.6191 66.7154 84.2857 66.8104 85.0476C66.9054 85.8095 66.8579 86.6667 66.6679 87.5715C66.2404 89.5238 65.0529 91.7619 63.1054 94.1429C64.3404 95.4762 65.4329 96.4286 66.4779 97C67.2379 97.4286 67.9504 97.6667 68.7104 97.7619C69.4704 97.8572 70.2304 97.7619 70.9429 97.4762Z" fill="#FF5A5F"/>
<defs>
<filter id="filter0_d" x="0" y="0" width="190" height="190" filterUnits="userSpaceOnUse" color-interpolation-filters="sRGB">
<feFlood flood-opacity="0" result="BackgroundImageFix"/>
<feColorMatrix in="SourceAlpha" type="matrix" values="0 0 0 0 0 0 0 0 0 0 0 0 0 0 0 0 0 0 127 0"/>
<feOffset dy="10"/>
<feGaussianBlur stdDeviation="12.5"/>
<feColorMatrix type="matrix" values="0 0 0 0 0 0 0 0 0 0 0 0 0 0 0 0 0 0 0.05 0"/>
<feBlend mode="normal" in2="BackgroundImageFix" result="effect1_dropShadow"/>
<feBlend mode="normal" in="SourceGraphic" in2="effect1_dropShadow" result="shape"/>
</filter>
</defs>
</svg>
