<svg width="170" height="168" viewBox="0 0 170 168" fill="none" xmlns="http://www.w3.org/2000/svg">
<g filter="url(#filter0_d)">
<path fill-rule="evenodd" clip-rule="evenodd" d="M85 135C118.137 135 145 108.137 145 75C145 41.8629 118.137 15 85 15C51.8629 15 25 41.8629 25 75C25 108.137 51.8629 135 85 135Z" fill="white"/>
</g>
<path fill-rule="evenodd" clip-rule="evenodd" d="M53.1294 64.766C53.1294 65.717 52.3144 66.5321 51.3637 66.5321C50.4129 66.5321 49.598 65.717 49.598 64.766C49.598 63.8151 50.4129 63 51.3637 63C52.3144 63 53.1294 63.8151 53.1294 64.766ZM51.3635 67.9812C50.3222 67.9812 49.5073 68.7963 49.5073 69.8378C49.5073 70.8793 50.3222 71.6944 51.3635 71.6944C52.4048 71.6944 53.2198 70.8793 53.2198 69.8378C53.2198 68.751 52.4048 67.9812 51.3635 67.9812ZM49.4624 74.8189C49.4624 73.7774 50.3226 72.917 51.3639 72.917C52.4052 72.917 53.3107 73.8227 53.2654 74.8189C53.2654 75.8604 52.4052 76.7208 51.3639 76.7208C50.3226 76.7208 49.4624 75.8604 49.4624 74.8189ZM51.3635 77.9888C50.3222 77.9888 49.5073 78.8039 49.5073 79.8454C49.5073 80.8869 50.3222 81.702 51.3635 81.702C52.4048 81.702 53.2198 80.8869 53.2198 79.8454C53.2198 78.8491 52.4048 77.9888 51.3635 77.9888ZM49.5981 84.8717C49.5981 83.9208 50.4131 83.1057 51.3638 83.1057C52.3146 83.1057 53.1295 83.9208 53.1295 84.8717C53.1295 85.8227 52.3146 86.6378 51.3638 86.6378C50.4131 86.6378 49.5981 85.8227 49.5981 84.8717ZM56.253 67.7095C55.1212 67.7095 54.1704 68.6604 54.1704 69.7925C54.1704 70.9246 55.1212 71.8755 56.253 71.8755C57.3848 71.8755 58.3356 70.9246 58.3356 69.7925C58.3356 68.6604 57.3848 67.7095 56.253 67.7095ZM54.0801 74.8643C54.0801 73.6416 55.0308 72.6907 56.2532 72.6907C57.4756 72.6907 58.4263 73.6416 58.4263 74.8643C58.4263 76.0869 57.4756 77.0378 56.2532 77.0378C55.0308 77.0378 54.0801 76.0869 54.0801 74.8643ZM56.253 77.717C55.1212 77.717 54.1704 78.668 54.1704 79.8001C54.1704 80.9321 55.1212 81.8831 56.253 81.8831C57.3848 81.8831 58.3356 80.9321 58.3356 79.8001C58.3356 78.7133 57.3848 77.717 56.253 77.717ZM58.9243 74.8641C58.9243 73.5056 60.0562 72.4641 61.3238 72.4641C62.5915 72.4641 63.6328 73.5056 63.7233 74.8641C63.7233 76.2226 62.682 77.2641 61.3238 77.2641C59.9656 77.2641 58.9243 76.132 58.9243 74.8641ZM46.4288 68.2075C45.5686 68.2075 44.8442 68.932 44.8442 69.7924C44.8442 70.6528 45.5686 71.3773 46.4288 71.3773C47.289 71.3773 48.0134 70.6528 48.0134 69.7924C48.0134 68.932 47.289 68.2075 46.4288 68.2075ZM44.7539 74.8642C44.7539 73.9132 45.4783 73.1887 46.429 73.1887C47.3798 73.1887 48.1042 73.9132 48.1042 74.8642C48.1042 75.8151 47.3798 76.5397 46.429 76.5397C45.4783 76.5397 44.7539 75.8151 44.7539 74.8642ZM46.4288 78.2151C45.5686 78.2151 44.8442 78.9396 44.8442 79.8C44.8442 80.6604 45.5686 81.3849 46.4288 81.3849C47.289 81.3849 48.0134 80.6604 48.0134 79.8C48.0134 78.9396 47.289 78.2151 46.4288 78.2151ZM40 74.8641C40 74.049 40.6338 73.415 41.4488 73.415C42.2637 73.415 42.8975 74.049 42.8975 74.8641C42.8975 75.6792 42.2637 76.3132 41.4488 76.3132C40.6338 76.3132 40 75.6792 40 74.8641Z" fill="#00B0B9"/>
<path d="M81.7876 71.7395C81.6065 71.7395 81.4707 71.9206 81.4707 72.0565V84.6452C81.4707 84.8263 81.6518 84.9621 81.7876 84.9621H83.3269C83.508 84.9621 83.6438 84.781 83.6438 84.6452V72.0565C83.6438 71.8754 83.4627 71.7395 83.3269 71.7395H81.7876Z" fill="#002A3A"/>
<path d="M82.6026 66.4414C81.7876 66.4414 81.1538 67.0754 81.1538 67.8905C81.1538 68.7056 81.7876 69.3395 82.6026 69.3395C83.4175 69.3395 84.0513 68.7056 84.0513 67.8905C84.0513 67.0754 83.4175 66.4414 82.6026 66.4414Z" fill="#002A3A"/>
<path d="M114.068 71.7395C113.887 71.7395 113.751 71.9206 113.751 72.0565V84.6452C113.751 84.8263 113.932 84.9621 114.068 84.9621H115.607C115.788 84.9621 115.924 84.781 115.924 84.6452V72.0565C115.924 71.8754 115.743 71.7395 115.607 71.7395H114.068Z" fill="#002A3A"/>
<path d="M114.792 66.4414C113.977 66.4414 113.343 67.0754 113.343 67.8905C113.343 68.7056 113.977 69.3395 114.792 69.3395C115.607 69.3395 116.241 68.7056 116.241 67.8905C116.241 67.0754 115.607 66.4414 114.792 66.4414Z" fill="#002A3A"/>
<path fill-rule="evenodd" clip-rule="evenodd" d="M130.177 83.5889C130.167 83.6329 130.143 83.6863 130.084 83.7396C130.084 83.8301 129.984 83.9207 129.784 83.8754L129.861 83.9602C129.851 83.9638 129.842 83.966 129.834 83.966H129.684L129.684 83.966H129.484V83.8302V83.4226H129.834C129.934 83.4226 130.034 83.4226 130.084 83.5132C130.143 83.5132 130.167 83.5446 130.177 83.5889ZM129.484 83.966H129.434V84.3735H129.234V83.2415H129.684H129.884C129.984 83.2415 130.084 83.332 130.084 83.332C130.184 83.332 130.184 83.4226 130.184 83.4226V83.5132C130.184 83.5318 130.184 83.5581 130.177 83.5889C130.184 83.6198 130.184 83.6571 130.184 83.6943C130.184 83.7849 130.184 83.8754 130.084 83.8754C130.026 83.8754 129.967 83.9065 129.919 83.9323C129.897 83.9437 129.878 83.954 129.861 83.9602L130.234 84.3735H130.034L129.684 83.966H129.484V83.966Z" fill="#002A3A"/>
<path fill-rule="evenodd" clip-rule="evenodd" d="M128.646 83.8301C128.646 83.2867 129.144 82.7886 129.687 82.7886C130.231 82.7886 130.729 83.2867 130.729 83.8301C130.729 84.3735 130.231 84.8716 129.687 84.8716C129.144 84.8716 128.646 84.3735 128.646 83.8301ZM128.736 83.8301C128.736 84.3735 129.144 84.781 129.687 84.781C130.185 84.781 130.638 84.3735 130.638 83.8301C130.638 83.2867 130.23 82.8792 129.687 82.8792C129.144 82.8792 128.736 83.2867 128.736 83.8301Z" fill="#002A3A"/>
<path d="M94.2832 73.8225C94.4643 73.8225 94.6001 73.6414 94.6001 73.5056V71.9659C94.6001 71.7848 94.419 71.649 94.2832 71.649H91.0688V66.849C91.0688 66.6678 90.8877 66.532 90.7519 66.532H89.2125C89.0315 66.532 88.8956 66.7131 88.8956 66.849V71.649H87.3111C87.13 71.649 86.9941 71.8301 86.9941 71.9659V73.5056C86.9941 73.6867 87.1752 73.8225 87.3111 73.8225H88.8956V81.1131C88.8956 83.3773 90.4349 84.781 92.5628 84.781H94.1474C94.3285 84.781 94.4643 84.5999 94.4643 84.4641V82.9244C94.4643 82.7433 94.2832 82.6075 94.1474 82.6075H92.7892C91.7479 82.6075 91.0235 81.8829 91.0235 80.7509V73.732H94.2379L94.2832 73.8225Z" fill="#002A3A"/>
<path d="M126.156 73.8225C126.337 73.8225 126.473 73.6414 126.473 73.5056V71.9659C126.473 71.7848 126.292 71.649 126.156 71.649H122.941V66.849C122.941 66.6678 122.76 66.532 122.624 66.532H121.085C120.904 66.532 120.768 66.7131 120.768 66.849V71.649H119.184C119.003 71.649 118.867 71.8301 118.867 71.9659V73.5056C118.867 73.6867 119.048 73.8225 119.184 73.8225H120.768V81.1131C120.768 83.3773 122.307 84.781 124.435 84.781H126.02C126.201 84.781 126.337 84.5999 126.337 84.4641V82.9244C126.337 82.7433 126.156 82.6075 126.02 82.6075H124.662C123.62 82.6075 122.896 81.8829 122.896 80.7509V73.732H126.201L126.156 73.8225Z" fill="#002A3A"/>
<path d="M72.28 73.8225V84.5545C72.28 84.7357 72.4611 84.8715 72.597 84.8715H74.1363C74.3174 84.8715 74.4532 84.6904 74.4532 84.5545V73.8225H77.9845C78.1656 73.8225 78.3014 73.6413 78.3014 73.5055V71.9659C78.3014 71.7847 78.1203 71.6489 77.9845 71.6489H74.4532V68.8413C74.4532 67.7093 75.2681 66.9395 76.2189 66.9395H77.9845C78.1656 66.9395 78.3014 66.7583 78.3014 66.6225V65.0829C78.3014 64.9017 78.1203 64.7659 77.9845 64.7659H76.3094C74.0457 64.7659 72.3253 66.6225 72.3253 68.7508V71.6489H70.7407C70.5596 71.6489 70.4238 71.83 70.4238 71.9659V73.5055C70.4238 73.6866 70.6049 73.8225 70.7407 73.8225H72.28Z" fill="#002A3A"/>
<path fill-rule="evenodd" clip-rule="evenodd" d="M104.289 71.2413C106.054 71.2413 107.73 71.9659 108.952 73.2338C110.174 74.547 110.808 76.2677 110.672 78.2149C110.672 83.1055 107.413 85.2791 104.198 85.2791C101.029 85.2791 97.7241 83.1055 97.7241 78.2149V64.9923C97.7241 64.8564 97.8599 64.6753 98.041 64.6753H99.5803C99.7162 64.6753 99.8973 64.8111 99.8973 64.9923V73.0074C100.939 71.9659 102.614 71.2413 104.289 71.2413ZM99.8975 78.2602C99.8975 80.6602 101.075 83.2413 104.289 83.2413C107.503 83.2413 108.635 80.7055 108.681 78.2602C108.681 75.3621 106.915 73.3696 104.289 73.3696C101.663 73.3696 99.8975 75.3168 99.8975 78.2602Z" fill="#002A3A"/>
<defs>
<filter id="filter0_d" x="0" y="0" width="170" height="170" filterUnits="userSpaceOnUse" color-interpolation-filters="sRGB">
<feFlood flood-opacity="0" result="BackgroundImageFix"/>
<feColorMatrix in="SourceAlpha" type="matrix" values="0 0 0 0 0 0 0 0 0 0 0 0 0 0 0 0 0 0 127 0"/>
<feOffset dy="10"/>
<feGaussianBlur stdDeviation="12.5"/>
<feColorMatrix type="matrix" values="0 0 0 0 0 0 0 0 0 0 0 0 0 0 0 0 0 0 0.05 0"/>
<feBlend mode="normal" in2="BackgroundImageFix" result="effect1_dropShadow"/>
<feBlend mode="normal" in="SourceGraphic" in2="effect1_dropShadow" result="shape"/>
</filter>
</defs>
</svg>
