<svg width="91" height="24" viewBox="0 0 91 24" fill="none" xmlns="http://www.w3.org/2000/svg">
<path fill-rule="evenodd" clip-rule="evenodd" d="M13.1294 1.76604C13.1294 2.71698 12.3144 3.53208 11.3637 3.53208C10.4129 3.53208 9.59801 2.71698 9.59801 1.76604C9.59801 0.815094 10.4129 0 11.3637 0C12.3144 0 13.1294 0.815094 13.1294 1.76604ZM11.3635 4.9812C10.3222 4.9812 9.50732 5.7963 9.50732 6.8378C9.50732 7.87931 10.3222 8.69441 11.3635 8.69441C12.4048 8.69441 13.2198 7.87931 13.2198 6.8378C13.2198 5.75101 12.4048 4.9812 11.3635 4.9812ZM9.4624 11.8189C9.4624 10.7774 10.3226 9.91699 11.3639 9.91699C12.4052 9.91699 13.3107 10.8227 13.2654 11.8189C13.2654 12.8604 12.4052 13.7208 11.3639 13.7208C10.3226 13.7208 9.4624 12.8604 9.4624 11.8189ZM11.3635 14.9888C10.3222 14.9888 9.50732 15.8039 9.50732 16.8454C9.50732 17.8869 10.3222 18.702 11.3635 18.702C12.4048 18.702 13.2198 17.8869 13.2198 16.8454C13.2198 15.8491 12.4048 14.9888 11.3635 14.9888ZM9.59814 21.8717C9.59814 20.9208 10.4131 20.1057 11.3638 20.1057C12.3146 20.1057 13.1295 20.9208 13.1295 21.8717C13.1295 22.8227 12.3146 23.6378 11.3638 23.6378C10.4131 23.6378 9.59814 22.8227 9.59814 21.8717ZM16.253 4.70947C15.1212 4.70947 14.1704 5.66042 14.1704 6.79249C14.1704 7.92457 15.1212 8.87551 16.253 8.87551C17.3848 8.87551 18.3356 7.92457 18.3356 6.79249C18.3356 5.66042 17.3848 4.70947 16.253 4.70947ZM14.0801 11.8643C14.0801 10.6416 15.0308 9.69067 16.2532 9.69067C17.4756 9.69067 18.4263 10.6416 18.4263 11.8643C18.4263 13.0869 17.4756 14.0378 16.2532 14.0378C15.0308 14.0378 14.0801 13.0869 14.0801 11.8643ZM16.253 14.717C15.1212 14.717 14.1704 15.668 14.1704 16.8001C14.1704 17.9321 15.1212 18.8831 16.253 18.8831C17.3848 18.8831 18.3356 17.9321 18.3356 16.8001C18.3356 15.7133 17.3848 14.717 16.253 14.717ZM18.9243 11.8641C18.9243 10.5056 20.0562 9.46411 21.3238 9.46411C22.5915 9.46411 23.6328 10.5056 23.7233 11.8641C23.7233 13.2226 22.682 14.2641 21.3238 14.2641C19.9656 14.2641 18.9243 13.132 18.9243 11.8641ZM6.42882 5.20752C5.56862 5.20752 4.84424 5.93205 4.84424 6.79243C4.84424 7.6528 5.56862 8.37733 6.42882 8.37733C7.28901 8.37733 8.01339 7.6528 8.01339 6.79243C8.01339 5.93205 7.28901 5.20752 6.42882 5.20752ZM4.75391 11.8642C4.75391 10.9132 5.47828 10.1887 6.42903 10.1887C7.37978 10.1887 8.10415 10.9132 8.10415 11.8642C8.10415 12.8151 7.37978 13.5397 6.42903 13.5397C5.47828 13.5397 4.75391 12.8151 4.75391 11.8642ZM6.42882 15.2151C5.56862 15.2151 4.84424 15.9396 4.84424 16.8C4.84424 17.6604 5.56862 18.3849 6.42882 18.3849C7.28901 18.3849 8.01339 17.6604 8.01339 16.8C8.01339 15.9396 7.28901 15.2151 6.42882 15.2151ZM0 11.8641C0 11.049 0.633831 10.415 1.44876 10.415C2.26368 10.415 2.89751 11.049 2.89751 11.8641C2.89751 12.6792 2.26368 13.3132 1.44876 13.3132C0.633831 13.3132 0 12.6792 0 11.8641Z" fill="#00B0B9"/>
<path d="M41.7876 8.7395C41.6065 8.7395 41.4707 8.92063 41.4707 9.05648V21.6452C41.4707 21.8263 41.6518 21.9621 41.7876 21.9621H43.3269C43.508 21.9621 43.6438 21.781 43.6438 21.6452V9.05648C43.6438 8.87535 43.4627 8.7395 43.3269 8.7395H41.7876Z" fill="#002A3A"/>
<path d="M42.6026 3.44141C41.7876 3.44141 41.1538 4.07537 41.1538 4.89046C41.1538 5.70556 41.7876 6.33952 42.6026 6.33952C43.4175 6.33952 44.0513 5.70556 44.0513 4.89046C44.0513 4.07537 43.4175 3.44141 42.6026 3.44141Z" fill="#002A3A"/>
<path d="M74.0679 8.7395C73.8868 8.7395 73.751 8.92063 73.751 9.05648V21.6452C73.751 21.8263 73.9321 21.9621 74.0679 21.9621H75.6072C75.7883 21.9621 75.9241 21.781 75.9241 21.6452V9.05648C75.9241 8.87535 75.743 8.7395 75.6072 8.7395H74.0679Z" fill="#002A3A"/>
<path d="M74.792 3.44141C73.9771 3.44141 73.3433 4.07537 73.3433 4.89046C73.3433 5.70556 73.9771 6.33952 74.792 6.33952C75.6069 6.33952 76.2408 5.70556 76.2408 4.89046C76.2408 4.07537 75.6069 3.44141 74.792 3.44141Z" fill="#002A3A"/>
<path fill-rule="evenodd" clip-rule="evenodd" d="M90.1774 20.5889C90.1675 20.6329 90.1432 20.6863 90.0844 20.7396C90.0844 20.8301 89.9844 20.9207 89.7844 20.8754L89.861 20.9602C89.851 20.9638 89.8421 20.966 89.8344 20.966H89.6844L89.6844 20.966H89.4844V20.8302V20.4226H89.8344C89.9344 20.4226 90.0344 20.4226 90.0844 20.5132C90.1432 20.5132 90.1675 20.5446 90.1774 20.5889ZM89.4844 20.966H89.4344V21.3735H89.2344V20.2415H89.6844H89.8844C89.9844 20.2415 90.0844 20.332 90.0844 20.332C90.1844 20.332 90.1844 20.4226 90.1844 20.4226V20.5132C90.1844 20.5318 90.1844 20.5581 90.1774 20.5889C90.1844 20.6198 90.1844 20.6571 90.1844 20.6943C90.1844 20.7849 90.1844 20.8754 90.0844 20.8754C90.0258 20.8754 89.9672 20.9065 89.9187 20.9323C89.8972 20.9437 89.8776 20.954 89.861 20.9602L90.2344 21.3735H90.0344L89.6844 20.966H89.4844V20.966Z" fill="#002A3A"/>
<path fill-rule="evenodd" clip-rule="evenodd" d="M88.646 20.8301C88.646 20.2867 89.144 19.7886 89.6873 19.7886C90.2306 19.7886 90.7286 20.2867 90.7286 20.8301C90.7286 21.3735 90.2306 21.8716 89.6873 21.8716C89.144 21.8716 88.646 21.3735 88.646 20.8301ZM88.7363 20.8301C88.7363 21.3735 89.1438 21.781 89.6871 21.781C90.1851 21.781 90.6378 21.3735 90.6378 20.8301C90.6378 20.2867 90.2304 19.8792 89.6871 19.8792C89.1438 19.8792 88.7363 20.2867 88.7363 20.8301Z" fill="#002A3A"/>
<path d="M54.2832 10.8225C54.4643 10.8225 54.6001 10.6414 54.6001 10.5056V8.96594C54.6001 8.78481 54.419 8.64896 54.2832 8.64896H51.0688V3.84896C51.0688 3.66783 50.8877 3.53198 50.7519 3.53198H49.2125C49.0315 3.53198 48.8956 3.71311 48.8956 3.84896V8.64896H47.3111C47.13 8.64896 46.9941 8.8301 46.9941 8.96594V10.5056C46.9941 10.6867 47.1752 10.8225 47.3111 10.8225H48.8956V18.1131C48.8956 20.3773 50.4349 21.781 52.5628 21.781H54.1474C54.3285 21.781 54.4643 21.5999 54.4643 21.4641V19.9244C54.4643 19.7433 54.2832 19.6075 54.1474 19.6075H52.7892C51.7479 19.6075 51.0235 18.8829 51.0235 17.7509V10.732H54.2379L54.2832 10.8225Z" fill="#002A3A"/>
<path d="M86.1558 10.8225C86.3368 10.8225 86.4727 10.6414 86.4727 10.5056V8.96594C86.4727 8.78481 86.2916 8.64896 86.1558 8.64896H82.9413V3.84896C82.9413 3.66783 82.7602 3.53198 82.6244 3.53198H81.0851C80.904 3.53198 80.7682 3.71311 80.7682 3.84896V8.64896H79.1836C79.0025 8.64896 78.8667 8.8301 78.8667 8.96594V10.5056C78.8667 10.6867 79.0478 10.8225 79.1836 10.8225H80.7682V18.1131C80.7682 20.3773 82.3075 21.781 84.4354 21.781H86.0199C86.201 21.781 86.3368 21.5999 86.3368 21.4641V19.9244C86.3368 19.7433 86.1558 19.6075 86.0199 19.6075H84.6617C83.6204 19.6075 82.8961 18.8829 82.8961 17.7509V10.732H86.201L86.1558 10.8225Z" fill="#002A3A"/>
<path d="M32.28 10.8225V21.5545C32.28 21.7357 32.4611 21.8715 32.597 21.8715H34.1363C34.3174 21.8715 34.4532 21.6904 34.4532 21.5545V10.8225H37.9845C38.1656 10.8225 38.3014 10.6413 38.3014 10.5055V8.96587C38.3014 8.78474 38.1203 8.64889 37.9845 8.64889H34.4532V5.84134C34.4532 4.70927 35.2681 3.93945 36.2189 3.93945H37.9845C38.1656 3.93945 38.3014 3.75832 38.3014 3.62247V2.08285C38.3014 1.90172 38.1203 1.76587 37.9845 1.76587H36.3094C34.0457 1.76587 32.3253 3.62247 32.3253 5.75077V8.64889H30.7407C30.5596 8.64889 30.4238 8.83002 30.4238 8.96587V10.5055C30.4238 10.6866 30.6049 10.8225 30.7407 10.8225H32.28Z" fill="#002A3A"/>
<path fill-rule="evenodd" clip-rule="evenodd" d="M64.2888 8.24133C66.0545 8.24133 67.7296 8.96586 68.952 10.2338C70.1744 11.547 70.8082 13.2677 70.6724 15.2149C70.6724 20.1055 67.4127 22.2791 64.1983 22.2791C61.0291 22.2791 57.7241 20.1055 57.7241 15.2149V1.99227C57.7241 1.85643 57.8599 1.67529 58.041 1.67529H59.5803C59.7162 1.67529 59.8973 1.81114 59.8973 1.99227V10.0074C60.9385 8.96586 62.6137 8.24133 64.2888 8.24133ZM59.8975 15.2602C59.8975 17.6602 61.0746 20.2413 64.289 20.2413C67.5034 20.2413 68.6353 17.7055 68.6805 15.2602C68.6805 12.3621 66.9149 10.3696 64.289 10.3696C61.6631 10.3696 59.8975 12.3168 59.8975 15.2602Z" fill="#002A3A"/>
</svg>
