<svg width="170" height="170" viewBox="0 0 170 170" fill="none" xmlns="http://www.w3.org/2000/svg">
<g filter="url(#filter0_d)">
<path fill-rule="evenodd" clip-rule="evenodd" d="M85 135C118.137 135 145 108.137 145 75C145 41.8629 118.137 15 85 15C51.8629 15 25 41.8629 25 75C25 108.137 51.8629 135 85 135Z" fill="white"/>
</g>
<path d="M65.455 71.1393H56.258V73.8575H62.7824C62.4679 77.6787 59.2843 79.3332 56.258 79.3332C52.4062 79.3332 49.0654 76.2999 49.0654 72.0454C49.1047 67.909 52.2883 64.7575 56.2973 64.7575C59.4023 64.7575 61.2102 66.7272 61.2102 66.7272L63.1361 64.7575C63.1361 64.7575 60.6993 62.0393 56.2187 62.0393C50.4804 61.9999 46.1177 66.806 46.1177 72.006C46.1177 77.0878 50.2445 82.0514 56.3366 82.0514C61.6819 82.0514 65.6122 78.3878 65.6122 72.9514C65.6122 71.809 65.455 71.1393 65.455 71.1393Z" fill="#4885ED"/>
<path fill-rule="evenodd" clip-rule="evenodd" d="M66.4771 75.5515C66.4771 72.1242 69.189 69.1697 72.9621 69.1697C76.0671 69.1697 79.4079 71.3363 79.4079 75.6303C79.4079 79.3333 76.5387 82.0515 73.0014 82.0515C69.1104 82.0515 66.4771 79.0576 66.4771 75.5515ZM76.6176 75.5909C76.6176 73.1879 74.8489 71.6909 73.0016 71.6909C70.9185 71.6909 69.3071 73.3455 69.3464 75.5515C69.3464 77.8364 70.9578 79.4909 73.0016 79.4909C74.8882 79.4909 76.6176 77.9546 76.6176 75.5909Z" fill="#DB3236"/>
<path fill-rule="evenodd" clip-rule="evenodd" d="M80.5479 75.5515C80.5479 72.1242 83.2598 69.1697 87.0329 69.1697C90.1379 69.1697 93.4787 71.3363 93.4787 75.6303C93.4787 79.3333 90.6095 82.0515 87.0722 82.0515C83.1812 82.0515 80.5479 79.0576 80.5479 75.5515ZM90.6884 75.5909C90.6884 73.1879 88.9197 71.6909 87.0724 71.6909C84.9893 71.6909 83.3779 73.3455 83.4172 75.5515C83.4172 77.8364 85.0287 79.4909 87.0724 79.4909C88.959 79.4909 90.6884 77.9546 90.6884 75.5909Z" fill="#F4C20D"/>
<path fill-rule="evenodd" clip-rule="evenodd" d="M94.6577 75.6303C94.6577 72.203 97.3697 69.1697 100.828 69.1697C102.322 69.1697 103.462 69.7606 104.248 70.6666V69.5636H106.96V81.106C106.96 85.6757 104.326 87.8424 100.907 87.8424C97.7627 87.8424 95.994 85.9121 95.1294 84.0606L97.6448 83.0363C97.9985 83.8636 98.9811 85.3212 100.946 85.3212C102.99 85.3212 104.326 83.9818 104.326 81.7757V80.5151C103.58 81.3424 102.636 82.0909 100.789 82.0909C97.802 82.0909 94.6577 79.4909 94.6577 75.6303ZM104.484 75.6303C104.484 73.1485 102.754 71.6909 101.064 71.6909C99.2562 71.6909 97.4875 73.1485 97.4482 75.6303C97.4482 78.0333 99.1776 79.5303 101.025 79.5303C102.754 79.5303 104.484 78.1515 104.484 75.6303Z" fill="#4885ED"/>
<path fill-rule="evenodd" clip-rule="evenodd" d="M112.973 75.5516C112.973 71.7304 115.724 69.1304 118.987 69.1304C121.541 69.1304 123.467 70.8637 124.332 72.8334L124.764 73.897L116.157 77.4819C116.668 78.4667 117.493 79.4516 119.301 79.4516C120.912 79.4516 121.856 78.5849 122.445 77.6789L124.686 79.1758C123.703 80.5152 122.013 82.0122 119.301 82.0122C116.039 82.0122 112.973 79.6092 112.973 75.5516ZM121.463 72.9911C121.07 72.2426 120.244 71.6123 119.065 71.6123C117.218 71.6123 115.449 73.5426 115.685 75.3941L121.463 72.9911Z" fill="#DB3236"/>
<path d="M108.846 81.6576H111.676V62.6697H108.846V81.6576Z" fill="#3CBA54"/>
<defs>
<filter id="filter0_d" x="0" y="0" width="170" height="170" filterUnits="userSpaceOnUse" color-interpolation-filters="sRGB">
<feFlood flood-opacity="0" result="BackgroundImageFix"/>
<feColorMatrix in="SourceAlpha" type="matrix" values="0 0 0 0 0 0 0 0 0 0 0 0 0 0 0 0 0 0 127 0"/>
<feOffset dy="10"/>
<feGaussianBlur stdDeviation="12.5"/>
<feColorMatrix type="matrix" values="0 0 0 0 0 0 0 0 0 0 0 0 0 0 0 0 0 0 0.05 0"/>
<feBlend mode="normal" in2="BackgroundImageFix" result="effect1_dropShadow"/>
<feBlend mode="normal" in="SourceGraphic" in2="effect1_dropShadow" result="shape"/>
</filter>
</defs>
</svg>
