<svg width="79" height="26" viewBox="0 0 79 26" fill="none" xmlns="http://www.w3.org/2000/svg">
<path d="M19.455 9.1393H10.258V11.8575H16.7824C16.4679 15.6787 13.2843 17.3332 10.258 17.3332C6.40623 17.3332 3.06544 14.2999 3.06544 10.0454C3.10474 5.909 6.28832 2.75748 10.2973 2.75748C13.4023 2.75748 15.2102 4.72718 15.2102 4.72718L17.1361 2.75748C17.1361 2.75748 14.6993 0.039303 10.2187 0.039303C4.48036 -9.09306e-05 0.117676 4.80597 0.117676 10.006C0.117676 15.0878 4.24454 20.0514 10.3366 20.0514C15.6819 20.0514 19.6122 16.3878 19.6122 10.9514C19.6122 9.809 19.455 9.1393 19.455 9.1393Z" fill="#4885ED"/>
<path fill-rule="evenodd" clip-rule="evenodd" d="M20.4771 13.5515C20.4771 10.1242 23.189 7.16968 26.9621 7.16968C30.0671 7.16968 33.4079 9.33634 33.4079 13.6303C33.4079 17.3333 30.5387 20.0515 27.0014 20.0515C23.1104 20.0515 20.4771 17.0576 20.4771 13.5515ZM30.6176 13.5909C30.6176 11.1879 28.8489 9.69092 27.0016 9.69092C24.9185 9.69092 23.3071 11.3455 23.3464 13.5515C23.3464 15.8364 24.9578 17.4909 27.0016 17.4909C28.8882 17.4909 30.6176 15.9546 30.6176 13.5909Z" fill="#DB3236"/>
<path fill-rule="evenodd" clip-rule="evenodd" d="M34.5479 13.5515C34.5479 10.1242 37.2598 7.16968 41.0329 7.16968C44.1379 7.16968 47.4787 9.33634 47.4787 13.6303C47.4787 17.3333 44.6095 20.0515 41.0722 20.0515C37.1812 20.0515 34.5479 17.0576 34.5479 13.5515ZM44.6884 13.5909C44.6884 11.1879 42.9197 9.69092 41.0724 9.69092C38.9893 9.69092 37.3779 11.3455 37.4172 13.5515C37.4172 15.8364 39.0287 17.4909 41.0724 17.4909C42.959 17.4909 44.6884 15.9546 44.6884 13.5909Z" fill="#F4C20D"/>
<path fill-rule="evenodd" clip-rule="evenodd" d="M48.6577 13.6303C48.6577 10.203 51.3697 7.16968 54.8284 7.16968C56.3219 7.16968 57.4617 7.76059 58.2478 8.66665V7.56362H60.9597V19.106C60.9597 23.6757 58.3264 25.8424 54.907 25.8424C51.7627 25.8424 49.994 23.9121 49.1294 22.0606L51.6448 21.0363C51.9985 21.8636 52.9811 23.3212 54.9463 23.3212C56.9901 23.3212 58.3264 21.9818 58.3264 19.7757V18.5151C57.5796 19.3424 56.6363 20.0909 54.7891 20.0909C51.802 20.0909 48.6577 17.4909 48.6577 13.6303ZM58.4836 13.6303C58.4836 11.1485 56.7542 9.69092 55.0642 9.69092C53.2562 9.69092 51.4875 11.1485 51.4482 13.6303C51.4482 16.0333 53.1776 17.5303 55.0249 17.5303C56.7542 17.5303 58.4836 16.1515 58.4836 13.6303Z" fill="#4885ED"/>
<path fill-rule="evenodd" clip-rule="evenodd" d="M66.9731 13.5516C66.9731 9.73037 69.7244 7.13037 72.9866 7.13037C75.5413 7.13037 77.4672 8.8637 78.3319 10.8334L78.7642 11.897L70.1567 15.4819C70.6677 16.4667 71.493 17.4516 73.301 17.4516C74.9124 17.4516 75.8557 16.5849 76.4453 15.6789L78.6856 17.1758C77.703 18.5152 76.0129 20.0122 73.301 20.0122C70.0388 20.0122 66.9731 17.6092 66.9731 13.5516ZM75.4629 10.9911C75.0699 10.2426 74.2445 9.6123 73.0654 9.6123C71.2181 9.6123 69.4495 11.5426 69.6853 13.3941L75.4629 10.9911Z" fill="#DB3236"/>
<path d="M62.8462 19.6576H65.676V0.669678H62.8462V19.6576Z" fill="#3CBA54"/>
</svg>
