<svg width="190" height="190" viewBox="0 0 190 190" fill="none" xmlns="http://www.w3.org/2000/svg">
<g filter="url(#filter0_d)">
<path fill-rule="evenodd" clip-rule="evenodd" d="M95 155C133.66 155 165 123.66 165 85C165 46.3401 133.66 15 95 15C56.3401 15 25 46.3401 25 85C25 123.66 56.3401 155 95 155Z" fill="white"/>
</g>
<path fill-rule="evenodd" clip-rule="evenodd" d="M117.65 81.2955C118.59 80.3042 119.844 79.7825 121.15 79.7825C123.918 79.7825 126.164 82.1825 126.164 85.1042C126.164 88.026 123.918 90.426 121.15 90.426C119.791 90.426 118.59 89.8521 117.65 88.9129V89.8521C117.65 90.0086 117.493 90.1651 117.336 90.1651H115.56C115.403 90.1651 115.247 90.0086 115.247 89.8521V76.2347C115.247 76.0782 115.403 75.9216 115.56 75.9216H117.336C117.493 75.9216 117.65 76.0782 117.65 76.2347V81.2955ZM117.649 85.1564C117.702 86.8782 119.06 88.2868 120.732 88.2868C122.403 88.2868 123.814 86.8782 123.814 85.1042C123.814 83.3303 122.403 81.9216 120.732 81.9216C119.008 81.9216 117.702 83.3303 117.649 85.0521V85.1564Z" fill="#4264FB"/>
<path fill-rule="evenodd" clip-rule="evenodd" d="M127.261 85.1042C127.261 82.1825 129.716 79.7825 132.694 79.7825C135.672 79.7825 138.075 82.1303 138.075 85.1042C138.075 88.0781 135.724 90.4259 132.694 90.4259C129.664 90.4259 127.261 88.0259 127.261 85.1042ZM129.56 85.1042C129.56 86.8782 130.97 88.2868 132.642 88.2868C134.366 88.2868 135.724 86.8782 135.724 85.1042C135.724 83.3303 134.366 81.9216 132.642 81.9216C130.918 81.9216 129.56 83.3303 129.56 85.1042Z" fill="#4264FB"/>
<path fill-rule="evenodd" clip-rule="evenodd" d="M97.7463 80.0433H99.5224C99.6792 80.0433 99.8359 80.1999 99.8359 80.3564V89.852C99.8359 90.0086 99.6792 90.1651 99.5224 90.1651H97.7463C97.5896 90.1651 97.4329 90.0086 97.4329 89.852V88.9129C96.4926 89.9042 95.2389 90.4259 93.9329 90.4259C91.1642 90.4259 88.918 88.0259 88.918 85.1042C88.918 82.1825 91.1642 79.7825 93.9329 79.7825C95.2911 79.7825 96.4926 80.3564 97.4329 81.2955V80.3564C97.4329 80.1999 97.5896 80.0433 97.7463 80.0433ZM91.3208 85.1042C91.3208 86.8782 92.7312 88.2868 94.4029 88.2868C96.0745 88.2868 97.4327 86.9303 97.485 85.1564V85.0521C97.4327 83.3303 96.1268 81.9216 94.4029 81.9216C92.679 81.9216 91.3208 83.3303 91.3208 85.1042Z" fill="#4264FB"/>
<path fill-rule="evenodd" clip-rule="evenodd" d="M104.903 81.2955C105.843 80.3042 107.097 79.7825 108.403 79.7825C111.172 79.7825 113.418 82.1825 113.418 85.1042C113.418 88.0259 111.172 90.4259 108.403 90.4259C107.045 90.4259 105.843 89.852 104.903 88.9129V93.9738C104.903 94.1303 104.746 94.2868 104.59 94.2868H102.813C102.657 94.2868 102.5 94.1303 102.5 93.9738V80.3564C102.5 80.1999 102.657 80.0433 102.813 80.0433H104.59C104.746 80.0433 104.903 80.1999 104.903 80.3564V81.2955ZM104.903 85.1564C104.955 86.8782 106.313 88.2868 107.985 88.2868C109.709 88.2868 111.067 86.8782 111.067 85.1042C111.067 83.3303 109.657 81.9216 107.985 81.9216C106.261 81.9216 104.955 83.3303 104.903 85.0521V85.1564Z" fill="#4264FB"/>
<path d="M83.6419 79.7825C82.336 79.7825 81.1345 80.5651 80.5598 81.7651C79.933 80.5129 78.627 79.7825 77.2166 79.7825C76.1195 79.7825 75.127 80.3042 74.4479 81.1912V80.3564C74.4479 80.1999 74.2912 80.0433 74.1345 80.0433H72.3584C72.2016 80.0433 72.0449 80.1999 72.0449 80.3564V89.9042C72.0449 90.0607 72.2016 90.2173 72.3584 90.2173H74.1345C74.2912 90.2173 74.4479 90.0607 74.4479 89.9042V84.1651C74.5001 82.9129 75.3882 81.8694 76.4852 81.8694C77.6345 81.8694 78.5748 82.8086 78.5748 84.0607V89.9042C78.5748 90.0607 78.7315 90.2173 78.8882 90.2173H80.6643C80.821 90.2173 80.9778 90.0607 80.9778 89.9042V83.9564C81.1345 82.8086 81.9703 81.8694 83.0151 81.8694C84.1643 81.8694 85.1046 82.8086 85.1046 84.0607V89.9042C85.1046 90.0607 85.2613 90.2173 85.4181 90.2173H87.1942C87.3509 90.2173 87.5076 90.0607 87.5076 89.9042V83.3303C87.4031 81.3477 85.7315 79.7825 83.6419 79.7825Z" fill="#4264FB"/>
<path d="M147.635 89.7477L144.553 85.0521L147.582 80.4086C147.687 80.3043 147.635 80.0956 147.478 80.0434C147.426 79.9912 147.373 79.9912 147.321 79.9912H145.284C145.127 79.9912 144.97 80.0956 144.918 80.1999L143.142 83.226L141.366 80.2521C141.262 80.0956 141.157 80.0434 141 80.0434H138.963C138.806 80.0434 138.702 80.1477 138.702 80.3043C138.702 80.3564 138.702 80.4086 138.754 80.4608L141.784 85.1043L138.702 89.7999C138.597 89.9043 138.65 90.113 138.806 90.1651C138.859 90.2173 138.911 90.2173 138.963 90.2173H141C141.157 90.2173 141.314 90.113 141.366 90.0086L143.194 86.9825L145.023 90.0086C145.127 90.1651 145.232 90.2173 145.388 90.2173H147.426C147.582 90.2173 147.687 90.113 147.687 89.9564C147.687 89.8521 147.687 89.7999 147.635 89.7477Z" fill="#4264FB"/>
<path fill-rule="evenodd" clip-rule="evenodd" d="M43 85.1044C43 78.6348 48.2761 73.3652 54.806 73.3652C61.2836 73.3652 66.6119 78.5826 66.6119 85.1044C66.6119 91.6261 61.3358 96.8957 54.806 96.8957C48.2761 96.8957 43 91.5739 43 85.1044ZM49.1643 90.7391C49.1643 90.7391 56.3211 92.0435 60.3957 88.0261C62.5897 85.7826 62.5375 82.0783 60.1867 79.7304C57.836 77.3826 54.127 77.2783 51.8808 79.5217C47.8584 83.5913 49.1643 90.7391 49.1643 90.7391Z" fill="#4264FB"/>
<path d="M56.1118 80.2522L54.9626 82.6L52.6118 83.7478L54.9626 84.8957L56.1118 87.2957L57.2611 84.8957L59.6641 83.7478L57.2611 82.6L56.1118 80.2522Z" fill="#4264FB"/>
<defs>
<filter id="filter0_d" x="0" y="0" width="190" height="190" filterUnits="userSpaceOnUse" color-interpolation-filters="sRGB">
<feFlood flood-opacity="0" result="BackgroundImageFix"/>
<feColorMatrix in="SourceAlpha" type="matrix" values="0 0 0 0 0 0 0 0 0 0 0 0 0 0 0 0 0 0 127 0"/>
<feOffset dy="10"/>
<feGaussianBlur stdDeviation="12.5"/>
<feColorMatrix type="matrix" values="0 0 0 0 0 0 0 0 0 0 0 0 0 0 0 0 0 0 0.05 0"/>
<feBlend mode="normal" in2="BackgroundImageFix" result="effect1_dropShadow"/>
<feBlend mode="normal" in="SourceGraphic" in2="effect1_dropShadow" result="shape"/>
</filter>
</defs>
</svg>
