<svg width="105" height="24" viewBox="0 0 105 24" fill="none" xmlns="http://www.w3.org/2000/svg">
<path fill-rule="evenodd" clip-rule="evenodd" d="M74.6496 8.29554C75.5899 7.30424 76.8436 6.7825 78.1496 6.7825C80.9182 6.7825 83.1645 9.1825 83.1645 12.1042C83.1645 15.026 80.9182 17.426 78.1496 17.426C76.7914 17.426 75.5899 16.8521 74.6496 15.9129V16.8521C74.6496 17.0086 74.4929 17.1651 74.3361 17.1651H72.56C72.4033 17.1651 72.2466 17.0086 72.2466 16.8521V3.23467C72.2466 3.07815 72.4033 2.92163 72.56 2.92163H74.3361C74.4929 2.92163 74.6496 3.07815 74.6496 3.23467V8.29554ZM74.6494 12.1564C74.7017 13.8782 76.0599 15.2868 77.7315 15.2868C79.4031 15.2868 80.8136 13.8782 80.8136 12.1042C80.8136 10.3303 79.4031 8.92163 77.7315 8.92163C76.0076 8.92163 74.7017 10.3303 74.6494 12.0521V12.1564Z" fill="#4264FB"/>
<path fill-rule="evenodd" clip-rule="evenodd" d="M84.2612 12.1042C84.2612 9.18247 86.7165 6.78247 89.6941 6.78247C92.6717 6.78247 95.0747 9.1303 95.0747 12.1042C95.0747 15.0781 92.7239 17.4259 89.6941 17.4259C86.6642 17.4259 84.2612 15.0259 84.2612 12.1042ZM86.5596 12.1042C86.5596 13.8782 87.97 15.2868 89.6417 15.2868C91.3655 15.2868 92.7237 13.8782 92.7237 12.1042C92.7237 10.3303 91.3655 8.92163 89.6417 8.92163C87.9178 8.92163 86.5596 10.3303 86.5596 12.1042Z" fill="#4264FB"/>
<path fill-rule="evenodd" clip-rule="evenodd" d="M54.7463 7.04334H56.5224C56.6792 7.04334 56.8359 7.19986 56.8359 7.35638V16.852C56.8359 17.0086 56.6792 17.1651 56.5224 17.1651H54.7463C54.5896 17.1651 54.4329 17.0086 54.4329 16.852V15.9129C53.4926 16.9042 52.2389 17.4259 50.9329 17.4259C48.1642 17.4259 45.918 15.0259 45.918 12.1042C45.918 9.18247 48.1642 6.78247 50.9329 6.78247C52.2911 6.78247 53.4926 7.35638 54.4329 8.29551V7.35638C54.4329 7.19986 54.5896 7.04334 54.7463 7.04334ZM48.3208 12.1042C48.3208 13.8782 49.7312 15.2868 51.4029 15.2868C53.0745 15.2868 54.4327 13.9303 54.485 12.1564V12.0521C54.4327 10.3303 53.1268 8.92163 51.4029 8.92163C49.679 8.92163 48.3208 10.3303 48.3208 12.1042Z" fill="#4264FB"/>
<path fill-rule="evenodd" clip-rule="evenodd" d="M61.903 8.29551C62.8433 7.30421 64.097 6.78247 65.403 6.78247C68.1716 6.78247 70.4179 9.18247 70.4179 12.1042C70.4179 15.0259 68.1716 17.4259 65.403 17.4259C64.0448 17.4259 62.8433 16.852 61.903 15.9129V20.9738C61.903 21.1303 61.7463 21.2868 61.5896 21.2868H59.8134C59.6567 21.2868 59.5 21.1303 59.5 20.9738V7.35638C59.5 7.19986 59.6567 7.04334 59.8134 7.04334H61.5896C61.7463 7.04334 61.903 7.19986 61.903 7.35638V8.29551ZM61.9028 12.1564C61.9551 13.8782 63.3133 15.2868 64.9849 15.2868C66.7088 15.2868 68.067 13.8782 68.067 12.1042C68.067 10.3303 66.6566 8.92163 64.9849 8.92163C63.261 8.92163 61.9551 10.3303 61.9028 12.0521V12.1564Z" fill="#4264FB"/>
<path d="M40.6419 6.78247C39.336 6.78247 38.1345 7.56508 37.5598 8.76508C36.933 7.51291 35.627 6.78247 34.2166 6.78247C33.1195 6.78247 32.127 7.30421 31.4479 8.19117V7.35638C31.4479 7.19986 31.2912 7.04334 31.1345 7.04334H29.3584C29.2016 7.04334 29.0449 7.19986 29.0449 7.35638V16.9042C29.0449 17.0607 29.2016 17.2173 29.3584 17.2173H31.1345C31.2912 17.2173 31.4479 17.0607 31.4479 16.9042V11.1651C31.5001 9.91291 32.3882 8.86943 33.4852 8.86943C34.6345 8.86943 35.5748 9.80856 35.5748 11.0607V16.9042C35.5748 17.0607 35.7315 17.2173 35.8882 17.2173H37.6643C37.821 17.2173 37.9778 17.0607 37.9778 16.9042V10.9564C38.1345 9.80856 38.9703 8.86943 40.0151 8.86943C41.1643 8.86943 42.1046 9.80856 42.1046 11.0607V16.9042C42.1046 17.0607 42.2613 17.2173 42.4181 17.2173H44.1942C44.3509 17.2173 44.5076 17.0607 44.5076 16.9042V10.3303C44.4031 8.34769 42.7315 6.78247 40.6419 6.78247Z" fill="#4264FB"/>
<path d="M104.635 16.7477L101.553 12.0521L104.582 7.4086C104.687 7.30425 104.635 7.09556 104.478 7.04338C104.426 6.99121 104.373 6.99121 104.321 6.99121H102.284C102.127 6.99121 101.97 7.09556 101.918 7.19991L100.142 10.226L98.366 7.25208C98.2615 7.09556 98.157 7.04338 98.0003 7.04338H95.963C95.8063 7.04338 95.7018 7.14773 95.7018 7.30425C95.7018 7.35643 95.7018 7.4086 95.7541 7.46078L98.7839 12.1043L95.7018 16.7999C95.5973 16.9043 95.6496 17.113 95.8063 17.1651C95.8585 17.2173 95.9108 17.2173 95.963 17.2173H98.0003C98.157 17.2173 98.3138 17.113 98.366 17.0086L100.194 13.9825L102.023 17.0086C102.127 17.1651 102.232 17.2173 102.388 17.2173H104.426C104.582 17.2173 104.687 17.113 104.687 16.9564C104.687 16.8521 104.687 16.7999 104.635 16.7477Z" fill="#4264FB"/>
<path fill-rule="evenodd" clip-rule="evenodd" d="M0 12.1044C0 5.6348 5.27612 0.365234 11.806 0.365234C18.2836 0.365234 23.6119 5.58263 23.6119 12.1044C23.6119 18.6261 18.3358 23.8957 11.806 23.8957C5.27612 23.8957 0 18.5739 0 12.1044ZM6.16434 17.7391C6.16434 17.7391 13.3211 19.0435 17.3957 15.0261C19.5897 12.7826 19.5375 9.07826 17.1867 6.73043C14.836 4.38261 11.127 4.27826 8.88076 6.52174C4.85837 10.5913 6.16434 17.7391 6.16434 17.7391Z" fill="#4264FB"/>
<path d="M13.1118 7.2522L11.9626 9.60002L9.61182 10.7478L11.9626 11.8957L13.1118 14.2957L14.2611 11.8957L16.6641 10.7478L14.2611 9.60002L13.1118 7.2522Z" fill="#4264FB"/>
</svg>
