<svg width="95" height="30" viewBox="0 0 95 30" fill="none" xmlns="http://www.w3.org/2000/svg">
<path fill-rule="evenodd" clip-rule="evenodd" d="M27.0467 20.6648C27.1037 20.8133 27.1607 20.9619 27.2177 21.0952C27.5977 22.1905 27.6927 23.1905 27.3602 24.2381C27.0277 26.4286 25.6027 28.3333 23.5127 29.1429C22.8002 29.4762 21.9452 29.619 21.1377 29.619C20.9002 29.619 20.6152 29.619 20.3777 29.5714C19.4277 29.4762 18.4302 29.1429 17.4327 28.5714C16.2452 27.8571 15.0577 26.9048 13.7752 25.4762C12.4927 26.9048 11.3527 27.9048 10.1177 28.5714C9.16774 29.1429 8.17024 29.4762 7.17274 29.5714C7.05399 29.5714 6.92336 29.5833 6.79274 29.5952C6.66211 29.6071 6.53149 29.619 6.41274 29.619C5.60524 29.619 4.79774 29.4762 4.03774 29.1429C1.99524 28.3333 0.522738 26.4762 0.190238 24.2381C0.000237539 23.1905 0.142738 22.1429 0.522738 21.0476C0.665232 20.6667 0.807726 20.3334 0.95022 20L0.950238 20L0.950244 20L0.950265 19.9999L0.950278 19.9999C1.18776 19.4761 1.42525 18.9524 1.61524 18.4762L1.66274 18.4286C3.70524 13.9524 5.93774 9.42857 8.21774 5L8.31274 4.80952C8.55023 4.38097 8.78772 3.9048 9.02521 3.42864L9.02521 3.42863L9.02521 3.42862L9.02524 3.42857C9.31024 2.85714 9.64274 2.33333 10.1177 1.7619C11.1152 0.666667 12.4452 0 13.9177 0C15.3427 0 16.7202 0.666667 17.6702 1.85714C18.0947 2.32525 18.3675 2.83139 18.6241 3.30759L18.6242 3.30785C18.6547 3.36442 18.685 3.42058 18.7152 3.47619C18.9527 3.95238 19.1902 4.42857 19.4277 4.85714L19.5227 5.04762C21.8502 9.52381 24.0352 14.0476 26.0777 18.4762L26.1252 18.5238C26.3152 19 26.5527 19.5238 26.7902 20.0476C26.8757 20.219 26.9612 20.4419 27.0467 20.6647L27.0467 20.6648ZM50.0654 7.42846C50.0654 8.47607 49.2104 9.38084 48.1179 9.38084C47.0254 9.38084 46.1704 8.52369 46.1704 7.42846C46.1704 6.33322 46.9779 5.47607 48.1179 5.47607C49.2579 5.57131 50.0654 6.42846 50.0654 7.42846ZM42.1327 11.3334V11.8096C42.1327 11.8096 41.2302 10.6191 39.2827 10.6191C36.0527 10.6191 33.5352 13.0953 33.5352 16.4763C33.5352 19.8572 36.0052 22.3334 39.2827 22.3334C41.2777 22.3334 42.1327 21.0953 42.1327 21.0953V21.6191C42.1327 21.8572 42.3227 22.0477 42.5602 22.0477H44.9352V10.9049H42.5602C42.3227 10.9049 42.1327 11.143 42.1327 11.3334ZM39.7576 19.7142C40.8026 19.7142 41.7051 19.1428 42.1326 18.4761V14.5713C41.7526 13.9047 40.8026 13.3333 39.7576 13.3333C37.9051 13.3333 36.4326 14.5237 36.4326 16.5237C36.4326 18.5237 37.8576 19.7142 39.7576 19.7142ZM46.7402 10.9048H49.5902V22.0476H46.7402V10.9048ZM86.3075 11.8096C86.3075 11.8096 87.21 10.6192 89.1575 10.6192C92.3875 10.6192 94.905 13.0953 94.8575 16.5239C94.8575 19.9049 92.34 22.3811 89.11 22.3811C87.1625 22.3811 86.26 21.143 86.26 21.143V21.6668C86.26 21.9049 86.07 22.0953 85.8325 22.0953H83.4575V5.57153H86.3075V11.8096ZM88.6826 19.6666C87.5901 19.6666 86.7351 19.0952 86.3076 18.4285V14.4285C86.7351 13.8571 87.6851 13.1904 88.6826 13.1904C90.5826 13.1904 92.0076 14.3809 92.0076 16.3809C92.0076 18.3809 90.5826 19.6666 88.6826 19.6666ZM81.9855 22.143V15.4763C81.9855 13.5715 81.6054 12.5239 80.5604 11.6668C79.753 10.9525 78.7079 10.6191 77.4729 10.6191C76.3804 10.6191 75.2404 10.9525 74.433 11.8096V11.3334C74.433 11.0953 74.243 10.9049 74.0054 10.9049H71.7729V22.0953H74.6229V14.3334C75.1929 13.6668 76.0955 13.2382 76.9504 13.2382C78.5655 13.2382 79.1355 13.9525 79.1355 15.8096V22.143H81.9855ZM64.8851 10.6192C62.9376 10.6192 62.0351 11.8096 62.0351 11.8096V5.57153H59.1851V22.0953H61.5601C61.7976 22.0953 61.9876 21.9049 61.9876 21.6668V21.143C61.9876 21.143 62.8901 22.3811 64.8376 22.3811C68.0676 22.3811 70.5851 19.9049 70.5851 16.5239C70.6326 13.0953 68.1151 10.6192 64.8851 10.6192ZM62.0352 18.4285C62.4627 19.0952 63.3177 19.6666 64.4102 19.6666C66.3102 19.6666 67.7352 18.3809 67.7352 16.3809C67.7352 14.3809 66.3102 13.1904 64.4102 13.1904C63.4127 13.1904 62.4627 13.8571 62.0352 14.4285V18.4285ZM56.7153 10.6191C57.5703 10.6191 57.9978 10.762 57.9978 10.762V13.381C57.9978 13.381 55.6228 12.5715 54.1503 14.2858V22.0953H51.3003V10.9049H53.6753C53.9128 10.9049 54.1028 11.0953 54.1028 11.3334V11.8096C54.6728 11.1906 55.8603 10.6191 56.7153 10.6191ZM13.8703 22.6191C12.2553 20.6191 11.2578 18.7143 10.8778 17.0953C10.7353 16.4286 10.6878 15.8096 10.7828 15.2858C10.8303 14.8096 11.0203 14.381 11.2578 14.0477C11.8278 13.2382 12.7778 12.762 13.8703 12.762C14.9628 12.762 15.9603 13.2382 16.4828 14.0477C16.7203 14.381 16.9103 14.8096 16.9578 15.2858C17.0528 15.8096 17.0053 16.4286 16.8628 17.0953C16.4828 18.6667 15.4378 20.5715 13.8703 22.6191ZM22.9429 27.4762C24.4154 26.8572 25.4604 25.5238 25.6504 24C25.7929 23.2381 25.6979 22.4762 25.3654 21.6667C25.2704 21.381 25.1279 21.0477 24.9854 20.7144L24.9854 20.7143C24.8666 20.4762 24.7597 20.2262 24.6529 19.9762C24.546 19.7262 24.4391 19.4762 24.3204 19.2381V19.1905C22.2779 14.8095 20.0929 10.2857 17.8604 5.85717L17.7654 5.66669C17.5279 5.1905 17.2904 4.71431 17.0529 4.28574C16.8154 3.80955 16.5779 3.38098 16.2454 3.00002C15.6279 2.28574 14.7729 1.90479 13.8704 1.90479C12.9679 1.90479 12.1129 2.28574 11.4954 3.00002C11.2104 3.38098 10.9254 3.80955 10.6879 4.28574C10.4504 4.76193 10.2129 5.23812 9.97537 5.66669L9.88037 5.85717C7.60037 10.2381 5.41537 14.7619 3.37287 19.1905L3.32537 19.2381C3.08787 19.7143 2.85037 20.2381 2.66037 20.7143C2.59502 20.889 2.52966 21.0437 2.46889 21.1875C2.39716 21.3573 2.3318 21.512 2.28037 21.6667C1.94787 22.5238 1.90037 23.2381 1.99537 24C2.23287 25.5238 3.23037 26.9048 4.70287 27.4762C5.36787 27.7143 6.12787 27.8572 6.93537 27.7619C7.64787 27.6667 8.40787 27.4286 9.16787 27C10.2129 26.4286 11.3054 25.5238 12.5404 24.1429C10.6404 21.7619 9.40537 19.5238 8.97787 17.5715C8.74037 16.6667 8.74037 15.8095 8.83537 15.0476C8.97787 14.3334 9.21537 13.6191 9.64287 13.0476C10.5454 11.7619 12.1129 10.9524 13.8229 10.9524C15.5329 10.9524 17.1004 11.7143 18.0029 13.0476C18.4304 13.6191 18.7154 14.2857 18.8104 15.0476C18.9054 15.8095 18.8579 16.6667 18.6679 17.5715C18.2404 19.5238 17.0529 21.7619 15.1054 24.1429C16.3404 25.4762 17.4329 26.4286 18.4779 27C19.2379 27.4286 19.9504 27.6667 20.7104 27.7619C21.4704 27.8572 22.2304 27.7619 22.9429 27.4762Z" fill="#FF5A5F"/>
</svg>
