<svg width="591" height="567" viewBox="0 0 591 567" fill="none" xmlns="http://www.w3.org/2000/svg">
<g id="Shape-1">
<path id="Shape" opacity="0.05" fill-rule="evenodd" clip-rule="evenodd" d="M-166.216 344.598L453.297 178.6C461.589 176.378 470.436 178.754 476.499 184.831L550.459 258.965C556.5 265.021 558.862 273.835 556.658 282.1L529.674 383.282C527.461 391.576 520.988 398.058 512.696 400.28L-107.991 566.592L-166.216 344.598Z" fill="url(#paint0_linear)"/>
<path id="Shape_2" opacity="0.05" fill-rule="evenodd" clip-rule="evenodd" d="M-339.145 187.995L280.367 21.9969C288.659 19.7751 297.507 22.1513 303.57 28.2285L377.529 102.362C383.571 108.418 385.933 117.232 383.728 125.497L356.744 226.679C354.532 234.974 348.058 241.455 339.766 243.677L-280.92 409.989L-339.145 187.995Z" fill="url(#paint1_linear)"/>
</g>
<defs>
<linearGradient id="paint0_linear" x1="530.598" y1="158.203" x2="-165.45" y2="344.709" gradientUnits="userSpaceOnUse">
<stop stop-color="white"/>
<stop offset="1" stop-color="white" stop-opacity="0.01"/>
</linearGradient>
<linearGradient id="paint1_linear" x1="357.669" y1="1.60071" x2="-338.379" y2="188.106" gradientUnits="userSpaceOnUse">
<stop stop-color="white"/>
<stop offset="1" stop-color="white" stop-opacity="0.01"/>
</linearGradient>
</defs>
</svg>
