<svg width="165" height="190" viewBox="0 0 165 190" fill="none" xmlns="http://www.w3.org/2000/svg">
<g filter="url(#filter0_d)">
<path fill-rule="evenodd" clip-rule="evenodd" d="M95 155C133.66 155 165 123.66 165 85C165 46.3401 133.66 15 95 15C56.3401 15 25 46.3401 25 85C25 123.66 56.3401 155 95 155Z" fill="white"/>
</g>
<path fill-rule="evenodd" clip-rule="evenodd" d="M60.8254 70.0984C52.6493 70.0984 46 76.6886 46 84.8525C46 93.0164 52.6493 99.6558 60.8254 99.6558C69.0015 99.6558 75.6507 93.0164 75.6507 84.8525C75.6015 76.6886 69.0015 70.0984 60.8254 70.0984ZM67.5731 91.3935C67.3268 91.8361 66.7357 91.9837 66.2925 91.6886C62.7954 89.5738 58.4611 89.082 53.2895 90.2623C52.7969 90.3607 52.3044 90.0656 52.2059 89.5738C52.1074 89.082 52.4029 88.5902 52.8954 88.4919C58.5596 87.2132 63.3865 87.7541 67.2775 90.164C67.7208 90.4099 67.8686 90.9509 67.5731 91.3935ZM67.8194 87.7542C68.3612 88.0985 69.0508 87.9018 69.3955 87.3608C69.7403 86.8198 69.5433 86.1313 69.1 85.787C64.5194 82.9837 57.8209 82.1969 52.4523 83.8198C51.812 84.0165 51.4672 84.6559 51.6642 85.246C51.8612 85.8854 52.5015 86.2296 53.0926 86.0329C57.7717 84.6067 63.8299 85.2952 67.8194 87.7542ZM69.5435 83.1803C64.7659 80.3278 56.8853 80.0819 52.3539 81.4589C51.6151 81.7048 50.8271 81.2622 50.63 80.5245C50.433 79.836 50.8271 79.0491 51.5659 78.8524C56.7868 77.2786 65.5047 77.5737 70.9718 80.8196C71.6121 81.213 71.8584 82.0491 71.4644 82.7376C71.0703 83.377 70.233 83.5737 69.5435 83.1803ZM83.2849 81.8034C83.2849 82.6886 83.7282 83.1312 86.2894 83.7214C89.3923 84.5083 90.6729 85.6886 90.6237 87.8034C90.6237 90.3115 88.7028 91.9345 85.7476 91.9345C83.6789 91.9345 81.7088 91.1968 80.1326 89.7706C80.0834 89.7214 80.0834 89.5738 80.1326 89.5247L81.5117 87.8525C81.5117 87.8525 81.561 87.8034 81.6103 87.8034C81.6103 87.8034 81.6595 87.8034 81.7088 87.8525C83.0879 89.0329 84.3192 89.5247 85.7968 89.5247C87.1267 89.5247 87.964 88.9345 87.964 88.0001C87.964 87.164 87.57 86.6722 85.1073 86.1312C82.2506 85.4427 80.5759 84.5574 80.5759 82.0001C80.5759 79.6394 82.4968 77.9673 85.255 77.9673C87.1267 77.9673 88.752 78.5574 90.1804 79.6886C90.2789 79.787 90.2789 79.8853 90.2297 79.9345L88.9983 81.705C88.9983 81.705 88.9491 81.7542 88.8998 81.7542C88.8506 81.7542 88.8013 81.7542 88.752 81.705C87.57 80.8197 86.3879 80.3771 85.255 80.3771C84.0729 80.3771 83.2849 80.9673 83.2849 81.8034ZM97.3716 81.2131C96.091 81.2131 95.0074 81.7049 94.1701 82.7377V81.5574C94.1701 81.459 94.0716 81.4099 94.0223 81.4099H91.7566C91.6581 81.4099 91.6089 81.5082 91.6089 81.5574V94.5902C91.6089 94.6885 91.7074 94.7377 91.7566 94.7377H94.0223C94.1208 94.7377 94.1701 94.6394 94.1701 94.5902V90.5082C95.0566 91.4918 96.091 91.9836 97.3716 91.9836C99.785 91.9836 102.198 90.164 102.198 86.623C102.198 83.082 99.785 81.2131 97.3716 81.2131ZM96.83 89.623C98.4554 89.623 99.5389 88.3443 99.5389 86.5738C99.5389 84.8033 98.4061 83.5247 96.83 83.5247C95.2539 83.5247 94.0718 84.8525 94.0718 86.5738C94.0718 88.2952 95.2539 89.623 96.83 89.623ZM108.405 81.2131C105.302 81.2131 102.888 83.5738 102.888 86.623C102.888 89.623 105.302 91.9836 108.355 91.9836C111.458 91.9836 113.872 89.623 113.872 86.623C113.921 83.5738 111.508 81.2131 108.405 81.2131ZM105.548 86.5737C105.548 88.295 106.779 89.6229 108.405 89.6229C110.079 89.6229 111.261 88.3934 111.311 86.6229C111.311 84.9016 110.079 83.5737 108.405 83.5737C106.73 83.5737 105.548 84.8032 105.548 86.5737ZM120.471 81.4098H117.96V78.8524C117.96 78.754 117.861 78.7048 117.812 78.7048H115.546C115.448 78.7048 115.398 78.8032 115.398 78.8524V81.4098H114.315C114.216 81.4098 114.167 81.5081 114.167 81.5573V83.5245C114.167 83.6229 114.266 83.672 114.315 83.672H115.398V88.7376C115.398 90.8032 116.433 91.836 118.452 91.836C119.289 91.836 119.93 91.6884 120.57 91.295C120.619 91.2458 120.668 91.1966 120.668 91.1475V89.2786C120.668 89.2294 120.619 89.1802 120.57 89.1311C120.521 89.0819 120.471 89.0819 120.422 89.1311C119.979 89.3278 119.536 89.4753 119.092 89.4753C118.354 89.4753 118.009 89.1311 118.009 88.3934V83.672H120.521C120.619 83.672 120.668 83.5737 120.668 83.5245V81.5573C120.668 81.5081 120.57 81.4098 120.471 81.4098ZM129.239 81.1639V81.459L133.179 81.5082C133.228 81.5082 133.278 81.5573 133.327 81.6065L135.986 88.5901L138.449 81.6065C138.449 81.5573 138.548 81.5082 138.597 81.5082H140.764C140.813 81.5082 140.863 81.5082 140.912 81.5573V81.7049L136.922 91.9344C136.085 94.0491 135.149 94.836 133.475 94.836C132.539 94.836 131.8 94.6393 131.012 94.1967C130.963 94.1967 130.913 94.0983 130.963 94L131.751 92.2786C131.751 92.2295 131.8 92.1803 131.849 92.1803C131.882 92.1475 131.915 92.1584 131.948 92.1694C131.964 92.1748 131.98 92.1803 131.997 92.1803C132.44 92.4262 132.883 92.5246 133.278 92.5246C133.77 92.5246 134.115 92.377 134.509 91.5409L131.258 83.7213H129.14V91.5901C129.14 91.6393 129.091 91.7377 128.992 91.7377H126.727C126.678 91.7377 126.579 91.6885 126.579 91.5901V83.7705H125.495C125.446 83.7705 125.348 83.7213 125.348 83.6229V81.6557C125.348 81.6065 125.397 81.5082 125.495 81.5082H126.579V81.0164C126.579 78.7541 127.712 77.5737 129.83 77.5737C130.716 77.5737 131.307 77.7213 131.751 77.8688C131.8 77.8688 131.849 77.9672 131.849 78.0164V79.9344C131.849 79.9836 131.849 80.0327 131.8 80.0819H131.652C131.209 79.9344 130.864 79.836 130.372 79.836C129.583 79.836 129.239 80.2295 129.239 81.1639ZM124.166 81.4099H121.9C121.802 81.4099 121.752 81.5083 121.752 81.5575V91.5411C121.752 91.6394 121.851 91.6886 121.9 91.6886H124.166C124.264 91.6886 124.314 91.5902 124.314 91.5411V81.6066C124.363 81.5083 124.264 81.4099 124.166 81.4099ZM121.407 78.5082C121.407 77.623 122.146 76.8853 123.033 76.8853C123.968 76.8853 124.658 77.623 124.658 78.5082C124.658 79.3935 123.919 80.1312 123.033 80.1312C122.146 80.1312 121.407 79.3935 121.407 78.5082ZM143.079 84.6558C142.192 84.6558 141.454 83.9181 141.454 83.0329C141.454 82.1476 142.143 81.4099 143.079 81.4099C144.015 81.4099 144.704 82.1476 144.704 83.0329C144.704 83.9181 144.015 84.6558 143.079 84.6558ZM141.651 83.0328C141.651 82.1967 142.242 81.5574 143.079 81.5574C143.917 81.5574 144.557 82.1967 144.508 82.9836C144.508 83.8197 143.917 84.459 143.079 84.459C142.291 84.459 141.651 83.8197 141.651 83.0328ZM143.473 83.1802L143.917 83.8196H143.523L143.129 83.2294H142.784V83.8196H142.439V82.1475H143.178C143.572 82.1475 143.818 82.3442 143.818 82.6884C143.867 82.9343 143.67 83.1311 143.473 83.1802ZM142.734 82.4426H143.178C143.375 82.4426 143.522 82.4918 143.522 82.7377C143.522 82.8853 143.375 82.9836 143.178 82.9836H142.734V82.4426Z" fill="#1ED760"/>
<defs>
<filter id="filter0_d" x="0" y="0" width="190" height="190" filterUnits="userSpaceOnUse" color-interpolation-filters="sRGB">
<feFlood flood-opacity="0" result="BackgroundImageFix"/>
<feColorMatrix in="SourceAlpha" type="matrix" values="0 0 0 0 0 0 0 0 0 0 0 0 0 0 0 0 0 0 127 0"/>
<feOffset dy="10"/>
<feGaussianBlur stdDeviation="12.5"/>
<feColorMatrix type="matrix" values="0 0 0 0 0 0 0 0 0 0 0 0 0 0 0 0 0 0 0.05 0"/>
<feBlend mode="normal" in2="BackgroundImageFix" result="effect1_dropShadow"/>
<feBlend mode="normal" in="SourceGraphic" in2="effect1_dropShadow" result="shape"/>
</filter>
</defs>
</svg>
